<?xml version="1.0" encoding="UTF-8"?>
<!DOCTYPE svg PUBLIC "-//W3C//DTD SVG 1.1//EN" "http://www.w3.org/Graphics/SVG/1.1/DTD/svg11.dtd">
<!-- Creator: CorelDRAW 2020 (64 Bit) -->
<svg xmlns="http://www.w3.org/2000/svg" xml:space="preserve" width="20919px" height="4348px" version="1.1" style="shape-rendering:geometricPrecision; text-rendering:geometricPrecision; image-rendering:optimizeQuality; fill-rule:evenodd; clip-rule:evenodd"
viewBox="0 0 5032.72 1046"
 xmlns:xlink="http://www.w3.org/1999/xlink"
 xmlns:xodm="http://www.corel.com/coreldraw/odm/2003">
 <defs>
  <style type="text/css">
   <![CDATA[
    .fil201 {fill:#01016A}
    .fil200 {fill:#02016A}
    .fil199 {fill:#03016A}
    .fil198 {fill:#04016A}
    .fil197 {fill:#05016A}
    .fil196 {fill:#06016A}
    .fil195 {fill:#07016A}
    .fil194 {fill:#08016A}
    .fil193 {fill:#09016A}
    .fil192 {fill:#0A016A}
    .fil191 {fill:#0B016A}
    .fil190 {fill:#0C016A}
    .fil189 {fill:#0D016A}
    .fil188 {fill:#0E016A}
    .fil187 {fill:#0F016A}
    .fil186 {fill:#10016A}
    .fil185 {fill:#11016A}
    .fil184 {fill:#12016A}
    .fil183 {fill:#13016A}
    .fil182 {fill:#14016A}
    .fil181 {fill:#15016A}
    .fil180 {fill:#16016A}
    .fil179 {fill:#17016A}
    .fil178 {fill:#18016A}
    .fil177 {fill:#19016A}
    .fil176 {fill:#1A016A}
    .fil175 {fill:#1B016A}
    .fil174 {fill:#1C016A}
    .fil173 {fill:#1D016A}
    .fil172 {fill:#1E016A}
    .fil171 {fill:#1F016A}
    .fil170 {fill:#20016A}
    .fil169 {fill:#21016A}
    .fil168 {fill:#22016A}
    .fil167 {fill:#23016A}
    .fil166 {fill:#24016A}
    .fil165 {fill:#25016A}
    .fil164 {fill:#26016A}
    .fil163 {fill:#27016A}
    .fil162 {fill:#28016A}
    .fil161 {fill:#290269}
    .fil160 {fill:#2B0269}
    .fil159 {fill:#2C0269}
    .fil158 {fill:#2D0269}
    .fil157 {fill:#2E0269}
    .fil156 {fill:#2F0269}
    .fil155 {fill:#300269}
    .fil154 {fill:#310269}
    .fil153 {fill:#320269}
    .fil152 {fill:#340269}
    .fil151 {fill:#350269}
    .fil150 {fill:#360269}
    .fil149 {fill:#370269}
    .fil148 {fill:#380269}
    .fil147 {fill:#3A0269}
    .fil146 {fill:#3B0269}
    .fil145 {fill:#3C0269}
    .fil144 {fill:#3D0269}
    .fil143 {fill:#3E0269}
    .fil142 {fill:#400269}
    .fil141 {fill:#410269}
    .fil140 {fill:#420269}
    .fil139 {fill:#430269}
    .fil138 {fill:#450269}
    .fil137 {fill:#460269}
    .fil136 {fill:#470269}
    .fil135 {fill:#490269}
    .fil134 {fill:#4A0269}
    .fil133 {fill:#4B0269}
    .fil132 {fill:#4C0269}
    .fil131 {fill:#4E0269}
    .fil130 {fill:#4F0269}
    .fil129 {fill:#500269}
    .fil128 {fill:#520269}
    .fil127 {fill:#530269}
    .fil126 {fill:#540269}
    .fil125 {fill:#560269}
    .fil124 {fill:#570269}
    .fil123 {fill:#580269}
    .fil122 {fill:#5A0269}
    .fil121 {fill:#5B0269}
    .fil120 {fill:#5D0269}
    .fil119 {fill:#5E0269}
    .fil118 {fill:#5F0269}
    .fil117 {fill:#610269}
    .fil116 {fill:#620269}
    .fil115 {fill:#630269}
    .fil114 {fill:#650269}
    .fil113 {fill:#660269}
    .fil112 {fill:#680269}
    .fil111 {fill:#690269}
    .fil110 {fill:#6A0269}
    .fil109 {fill:#6C0269}
    .fil108 {fill:#6D0269}
    .fil107 {fill:#6E0269}
    .fil106 {fill:#700269}
    .fil105 {fill:#710269}
    .fil104 {fill:#730269}
    .fil103 {fill:#740269}
    .fil102 {fill:#750269}
    .fil101 {fill:#770269}
    .fil100 {fill:#780368}
    .fil99 {fill:#7A0368}
    .fil98 {fill:#7B0368}
    .fil97 {fill:#7C0368}
    .fil96 {fill:#7E0368}
    .fil95 {fill:#7F0368}
    .fil94 {fill:#810368}
    .fil93 {fill:#820368}
    .fil92 {fill:#830368}
    .fil91 {fill:#850368}
    .fil90 {fill:#860368}
    .fil89 {fill:#870368}
    .fil88 {fill:#890368}
    .fil87 {fill:#8A0368}
    .fil86 {fill:#8C0368}
    .fil85 {fill:#8D0368}
    .fil84 {fill:#8E0368}
    .fil83 {fill:#900368}
    .fil82 {fill:#910368}
    .fil81 {fill:#920368}
    .fil80 {fill:#940368}
    .fil79 {fill:#950368}
    .fil78 {fill:#970368}
    .fil77 {fill:#980368}
    .fil76 {fill:#990368}
    .fil75 {fill:#9B0368}
    .fil74 {fill:#9C0368}
    .fil73 {fill:#9D0368}
    .fil72 {fill:#9F0368}
    .fil71 {fill:#A00368}
    .fil70 {fill:#A10368}
    .fil69 {fill:#A30368}
    .fil68 {fill:#A40368}
    .fil67 {fill:#A50368}
    .fil66 {fill:#A60368}
    .fil65 {fill:#A80368}
    .fil64 {fill:#A90368}
    .fil63 {fill:#AA0368}
    .fil62 {fill:#AC0368}
    .fil61 {fill:#AD0368}
    .fil60 {fill:#AE0368}
    .fil59 {fill:#AF0368}
    .fil58 {fill:#B10368}
    .fil57 {fill:#B20368}
    .fil56 {fill:#B30368}
    .fil55 {fill:#B40368}
    .fil54 {fill:#B50368}
    .fil53 {fill:#B70368}
    .fil52 {fill:#B80368}
    .fil51 {fill:#B90368}
    .fil50 {fill:#BA0368}
    .fil49 {fill:#BB0368}
    .fil48 {fill:#BD0368}
    .fil47 {fill:#BE0368}
    .fil46 {fill:#BF0368}
    .fil45 {fill:#C00368}
    .fil44 {fill:#C10368}
    .fil43 {fill:#C20368}
    .fil42 {fill:#C30368}
    .fil41 {fill:#C40368}
    .fil40 {fill:#C60368}
    .fil39 {fill:#C70467}
    .fil38 {fill:#C80467}
    .fil37 {fill:#C90467}
    .fil36 {fill:#CA0467}
    .fil35 {fill:#CB0467}
    .fil34 {fill:#CC0467}
    .fil33 {fill:#CD0467}
    .fil32 {fill:#CE0467}
    .fil31 {fill:#CF0467}
    .fil30 {fill:#D00467}
    .fil29 {fill:#D10467}
    .fil28 {fill:#D20467}
    .fil27 {fill:#D30467}
    .fil26 {fill:#D40467}
    .fil25 {fill:#D50467}
    .fil24 {fill:#D60467}
    .fil23 {fill:#D70467}
    .fil22 {fill:#D80467}
    .fil21 {fill:#D90467}
    .fil20 {fill:#DA0467}
    .fil19 {fill:#DB0467}
    .fil18 {fill:#DC0467}
    .fil17 {fill:#DD0467}
    .fil16 {fill:#DE0467}
    .fil15 {fill:#DF0467}
    .fil14 {fill:#E00467}
    .fil13 {fill:#E10467}
    .fil12 {fill:#E20467}
    .fil11 {fill:#E30467}
    .fil10 {fill:#E40467}
    .fil9 {fill:#E50467}
    .fil8 {fill:#E60467}
    .fil7 {fill:#E70467}
    .fil6 {fill:#E80467}
    .fil5 {fill:#E90467}
    .fil4 {fill:#EA0467}
    .fil3 {fill:#EB0467}
    .fil2 {fill:#EC0467}
    .fil1 {fill:#ED0467}
    .fil0 {fill:#EE0467}
   ]]>
  </style>
    <clipPath id="id0">
     <path d="M2707.81 1046l0 -1046 316.09 0c239.09,0 396.2,78.84 471.25,236.5l0 -236.5 553.4 0 155.07 0 14.81 0 334.46 831.56 342.82 -831.56 137.01 0 -416.06 1046 -162.07 0 -359.34 -925.69 -439.69 0 0 317.47 464.51 0 0 120.31 -464.51 0 0 367.6 584.82 0 0 120.31 -745.23 0 0 -271.31c-16.67,37.6 -37.39,72.06 -62.16,103.38 -47.34,60.43 -105.54,103.32 -175.16,129.22 -69.35,25.9 -161.8,38.71 -277.1,38.71l-272.92 0zm-514.73 -462.69l411.63 0 0 -120.62 -411.63 0 0 120.62zm-2193.08 462.69l521.65 -1046 522.33 1046 -163.25 0 -359.08 -719.84 -358.4 719.84 -163.25 0zm2089.98 -1044.99l-1046 522.32 1046 521.66 0 -163.25 -719.84 -358.41 719.84 -359.08 0 -163.24zm778.24 924.68l80.76 0c153.73,0 262.9,-30.35 328.06,-91.34 64.89,-60.99 97.47,-163.2 97.47,-306.9 0,-145.64 -29.52,-250.08 -88.28,-313.02 -58.76,-62.65 -156.79,-94.12 -293.8,-94.12l-124.21 0 0 805.38z"/>
    </clipPath>
 </defs>
 <g id="Camada_x0020_1">
  <metadata id="CorelCorpID_0Corel-Layer"/>
  <g>
   <g style="clip-path:url(#id0)">
    <polygon class="fil0" points="4595.94,-1334.01 4658.53,-1142.84 -196.22,446.7 -258.81,255.54 "/>
    <polygon id="1" class="fil0" points="4657.41,-1146.28 4660.79,-1135.96 -193.97,453.59 -197.35,443.26 "/>
    <polygon id="2" class="fil0" points="4659.66,-1139.4 4663.04,-1129.07 -191.71,460.48 -195.09,450.15 "/>
    <polygon id="3" class="fil0" points="4661.92,-1132.51 4665.3,-1122.18 -189.46,467.36 -192.84,457.03 "/>
    <polygon id="4" class="fil0" points="4664.17,-1125.63 4667.55,-1115.3 -187.2,474.25 -190.58,463.92 "/>
    <polygon id="5" class="fil0" points="4666.43,-1118.74 4669.81,-1108.41 -184.95,481.13 -188.33,470.8 "/>
    <polygon id="6" class="fil0" points="4668.68,-1111.86 4672.06,-1101.53 -182.69,488.02 -186.07,477.69 "/>
    <polygon id="7" class="fil1" points="4670.93,-1104.97 4674.32,-1094.64 -180.44,494.91 -183.82,484.58 "/>
    <polygon id="8" class="fil1" points="4673.19,-1098.08 4676.57,-1087.75 -178.18,501.79 -181.57,491.46 "/>
    <polygon id="9" class="fil1" points="4675.44,-1091.2 4678.83,-1080.87 -175.93,508.68 -179.31,498.35 "/>
    <polygon id="10" class="fil1" points="4677.7,-1084.31 4681.08,-1073.98 -173.67,515.56 -177.06,505.23 "/>
    <polygon id="11" class="fil1" points="4679.95,-1077.43 4683.34,-1067.1 -171.42,522.45 -174.8,512.12 "/>
    <polygon id="12" class="fil2" points="4682.21,-1070.54 4685.59,-1060.21 -169.17,529.33 -172.55,519.01 "/>
    <polygon id="13" class="fil2" points="4684.46,-1063.65 4687.84,-1053.32 -166.91,536.22 -170.29,525.89 "/>
    <polygon id="14" class="fil2" points="4686.72,-1056.77 4690.1,-1046.44 -164.66,543.11 -168.04,532.78 "/>
    <polygon id="15" class="fil2" points="4688.97,-1049.88 4692.35,-1039.55 -162.4,549.99 -165.78,539.66 "/>
    <polygon id="16" class="fil3" points="4691.23,-1043 4694.61,-1032.67 -160.15,556.88 -163.53,546.55 "/>
    <polygon id="17" class="fil3" points="4693.48,-1036.11 4696.86,-1025.78 -157.89,563.76 -161.27,553.44 "/>
    <polygon id="18" class="fil3" points="4695.74,-1029.22 4699.12,-1018.9 -155.64,570.65 -159.02,560.32 "/>
    <polygon id="19" class="fil4" points="4697.99,-1022.34 4701.37,-1012.01 -153.38,577.54 -156.77,567.21 "/>
    <polygon id="20" class="fil4" points="4700.24,-1015.45 4703.63,-1005.12 -151.13,584.42 -154.51,574.09 "/>
    <polygon id="21" class="fil5" points="4702.5,-1008.57 4705.88,-998.24 -148.87,591.31 -152.26,580.98 "/>
    <polygon id="22" class="fil5" points="4704.75,-1001.68 4708.14,-991.35 -146.62,598.19 -150,587.87 "/>
    <polygon id="23" class="fil5" points="4707.01,-994.79 4710.39,-984.47 -144.37,605.08 -147.75,594.75 "/>
    <polygon id="24" class="fil6" points="4709.26,-987.91 4712.64,-977.58 -142.11,611.97 -145.49,601.64 "/>
    <polygon id="25" class="fil6" points="4711.52,-981.02 4714.9,-970.69 -139.86,618.85 -143.24,608.52 "/>
    <polygon id="26" class="fil7" points="4713.77,-974.14 4717.15,-963.81 -137.6,625.74 -140.98,615.41 "/>
    <polygon id="27" class="fil7" points="4716.03,-967.25 4719.41,-956.92 -135.35,632.62 -138.73,622.29 "/>
    <polygon id="28" class="fil8" points="4718.28,-960.36 4721.66,-950.04 -133.09,639.51 -136.47,629.18 "/>
    <polygon id="29" class="fil8" points="4720.54,-953.48 4723.92,-943.15 -130.84,646.4 -134.22,636.07 "/>
    <polygon id="30" class="fil9" points="4722.79,-946.59 4726.17,-936.26 -128.58,653.28 -131.96,642.95 "/>
    <polygon id="31" class="fil10" points="4725.04,-939.71 4728.43,-929.38 -126.33,660.17 -129.71,649.84 "/>
    <polygon id="32" class="fil10" points="4727.3,-932.82 4730.68,-922.49 -124.07,667.05 -127.46,656.72 "/>
    <polygon id="33" class="fil11" points="4729.55,-925.94 4732.94,-915.61 -121.82,673.94 -125.2,663.61 "/>
    <polygon id="34" class="fil12" points="4731.81,-919.05 4735.19,-908.72 -119.56,680.82 -122.95,670.5 "/>
    <polygon id="35" class="fil12" points="4734.06,-912.16 4737.45,-901.83 -117.31,687.71 -120.69,677.38 "/>
    <polygon id="36" class="fil13" points="4736.32,-905.28 4739.7,-894.95 -115.06,694.6 -118.44,684.27 "/>
    <polygon id="37" class="fil14" points="4738.57,-898.39 4741.95,-888.06 -112.8,701.48 -116.18,691.15 "/>
    <polygon id="38" class="fil14" points="4740.83,-891.51 4744.21,-881.18 -110.55,708.37 -113.93,698.04 "/>
    <polygon id="39" class="fil15" points="4743.08,-884.62 4746.46,-874.29 -108.29,715.25 -111.67,704.93 "/>
    <polygon id="40" class="fil16" points="4745.34,-877.73 4748.72,-867.41 -106.04,722.14 -109.42,711.81 "/>
    <polygon id="41" class="fil16" points="4747.59,-870.85 4750.97,-860.52 -103.78,729.03 -107.16,718.7 "/>
    <polygon id="42" class="fil17" points="4749.85,-863.96 4753.23,-853.63 -101.53,735.91 -104.91,725.58 "/>
    <polygon id="43" class="fil18" points="4752.1,-857.08 4755.48,-846.75 -99.27,742.8 -102.66,732.47 "/>
    <polygon id="44" class="fil19" points="4754.35,-850.19 4757.74,-839.86 -97.02,749.68 -100.4,739.36 "/>
    <polygon id="45" class="fil20" points="4756.61,-843.3 4759.99,-832.98 -94.76,756.57 -98.15,746.24 "/>
    <polygon id="46" class="fil20" points="4758.86,-836.42 4762.25,-826.09 -92.51,763.46 -95.89,753.13 "/>
    <polygon id="47" class="fil21" points="4761.12,-829.53 4764.5,-819.2 -90.25,770.34 -93.64,760.01 "/>
    <polygon id="48" class="fil22" points="4763.37,-822.65 4766.75,-812.32 -88,777.23 -91.38,766.9 "/>
    <polygon id="49" class="fil23" points="4765.63,-815.76 4769.01,-805.43 -85.75,784.11 -89.13,773.78 "/>
    <polygon id="50" class="fil24" points="4767.88,-808.88 4771.26,-798.55 -83.49,791 -86.87,780.67 "/>
    <polygon id="51" class="fil25" points="4770.14,-801.99 4773.52,-791.66 -81.24,797.89 -84.62,787.56 "/>
    <polygon id="52" class="fil26" points="4772.39,-795.1 4775.77,-784.77 -78.98,804.77 -82.36,794.44 "/>
    <polygon id="53" class="fil26" points="4774.65,-788.22 4778.03,-777.89 -76.73,811.66 -80.11,801.33 "/>
    <polygon id="54" class="fil27" points="4776.9,-781.33 4780.28,-771 -74.47,818.54 -77.85,808.21 "/>
    <polygon id="55" class="fil28" points="4779.15,-774.45 4782.54,-764.12 -72.22,825.43 -75.6,815.1 "/>
    <polygon id="56" class="fil29" points="4781.41,-767.56 4784.79,-757.23 -69.96,832.31 -73.35,821.99 "/>
    <polygon id="57" class="fil30" points="4783.66,-760.67 4787.05,-750.34 -67.71,839.2 -71.09,828.87 "/>
    <polygon id="58" class="fil31" points="4785.92,-753.79 4789.3,-743.46 -65.45,846.09 -68.84,835.76 "/>
    <polygon id="59" class="fil32" points="4788.17,-746.9 4791.56,-736.57 -63.2,852.97 -66.58,842.64 "/>
    <polygon id="60" class="fil33" points="4790.43,-740.02 4793.81,-729.69 -60.95,859.86 -64.33,849.53 "/>
    <polygon id="61" class="fil34" points="4792.68,-733.13 4796.06,-722.8 -58.69,866.74 -62.07,856.42 "/>
    <polygon id="62" class="fil35" points="4794.94,-726.24 4798.32,-715.92 -56.44,873.63 -59.82,863.3 "/>
    <polygon id="63" class="fil36" points="4797.19,-719.36 4800.57,-709.03 -54.18,880.52 -57.56,870.19 "/>
    <polygon id="64" class="fil37" points="4799.45,-712.47 4802.83,-702.14 -51.93,887.4 -55.31,877.07 "/>
    <polygon id="65" class="fil38" points="4801.7,-705.59 4805.08,-695.26 -49.67,894.29 -53.05,883.96 "/>
    <polygon id="66" class="fil39" points="4803.96,-698.7 4807.34,-688.37 -47.42,901.17 -50.8,890.84 "/>
    <polygon id="67" class="fil40" points="4806.21,-691.81 4809.59,-681.49 -45.16,908.06 -48.54,897.73 "/>
    <polygon id="68" class="fil41" points="4808.46,-684.93 4811.85,-674.6 -42.91,914.95 -46.29,904.62 "/>
    <polygon id="69" class="fil42" points="4810.72,-678.04 4814.1,-667.71 -40.65,921.83 -44.04,911.5 "/>
    <polygon id="70" class="fil43" points="4812.97,-671.16 4816.36,-660.83 -38.4,928.72 -41.78,918.39 "/>
    <polygon id="71" class="fil44" points="4815.23,-664.27 4818.61,-653.94 -36.14,935.6 -39.53,925.27 "/>
    <polygon id="72" class="fil45" points="4817.48,-657.39 4820.86,-647.06 -33.89,942.49 -37.27,932.16 "/>
    <polygon id="73" class="fil46" points="4819.74,-650.5 4823.12,-640.17 -31.64,949.38 -35.02,939.05 "/>
    <polygon id="74" class="fil47" points="4821.99,-643.61 4825.37,-633.28 -29.38,956.26 -32.76,945.93 "/>
    <polygon id="75" class="fil48" points="4824.25,-636.73 4827.63,-626.4 -27.13,963.15 -30.51,952.82 "/>
    <polygon id="76" class="fil49" points="4826.5,-629.84 4829.88,-619.51 -24.87,970.03 -28.25,959.7 "/>
    <polygon id="77" class="fil50" points="4828.76,-622.96 4832.14,-612.63 -22.62,976.92 -26,966.59 "/>
    <polygon id="78" class="fil51" points="4831.01,-616.07 4834.39,-605.74 -20.36,983.8 -23.74,973.48 "/>
    <polygon id="79" class="fil52" points="4833.27,-609.18 4836.65,-598.86 -18.11,990.69 -21.49,980.36 "/>
    <polygon id="80" class="fil53" points="4835.52,-602.3 4838.9,-591.97 -15.85,997.58 -19.24,987.25 "/>
    <polygon id="81" class="fil54" points="4837.77,-595.41 4841.16,-585.08 -13.6,1004.46 -16.98,994.13 "/>
    <polygon id="82" class="fil55" points="4840.03,-588.53 4843.41,-578.2 -11.34,1011.35 -14.73,1001.02 "/>
    <polygon id="83" class="fil56" points="4842.28,-581.64 4845.67,-571.31 -9.09,1018.23 -12.47,1007.91 "/>
    <polygon id="84" class="fil57" points="4844.54,-574.75 4847.92,-564.43 -6.84,1025.12 -10.22,1014.79 "/>
    <polygon id="85" class="fil58" points="4846.79,-567.87 4850.17,-557.54 -4.58,1032.01 -7.96,1021.68 "/>
    <polygon id="86" class="fil59" points="4849.05,-560.98 4852.43,-550.65 -2.33,1038.89 -5.71,1028.56 "/>
    <polygon id="87" class="fil60" points="4851.3,-554.1 4854.68,-543.77 -0.07,1045.78 -3.45,1035.45 "/>
    <polygon id="88" class="fil61" points="4853.56,-547.21 4856.94,-536.88 2.18,1052.66 -1.2,1042.33 "/>
    <polygon id="89" class="fil62" points="4855.81,-540.32 4859.19,-530 4.44,1059.55 1.06,1049.22 "/>
    <polygon id="90" class="fil63" points="4858.07,-533.44 4861.45,-523.11 6.69,1066.44 3.31,1056.11 "/>
    <polygon id="91" class="fil64" points="4860.32,-526.55 4863.7,-516.22 8.95,1073.32 5.56,1062.99 "/>
    <polygon id="92" class="fil65" points="4862.57,-519.67 4865.96,-509.34 11.2,1080.21 7.82,1069.88 "/>
    <polygon id="93" class="fil66" points="4864.83,-512.78 4868.21,-502.45 13.46,1087.09 10.07,1076.76 "/>
    <polygon id="94" class="fil67" points="4867.08,-505.9 4870.47,-495.57 15.71,1093.98 12.33,1083.65 "/>
    <polygon id="95" class="fil68" points="4869.34,-499.01 4872.72,-488.68 17.97,1100.87 14.58,1090.54 "/>
    <polygon id="96" class="fil69" points="4871.59,-492.12 4874.97,-481.79 20.22,1107.75 16.84,1097.42 "/>
    <polygon id="97" class="fil70" points="4873.85,-485.24 4877.23,-474.91 22.47,1114.64 19.09,1104.31 "/>
    <polygon id="98" class="fil71" points="4876.1,-478.35 4879.48,-468.02 24.73,1121.52 21.35,1111.19 "/>
    <polygon id="99" class="fil72" points="4878.36,-471.47 4881.74,-461.14 26.98,1128.41 23.6,1118.08 "/>
    <polygon id="100" class="fil73" points="4880.61,-464.58 4883.99,-454.25 29.24,1135.29 25.86,1124.97 "/>
    <polygon id="101" class="fil74" points="4882.87,-457.69 4886.25,-447.36 31.49,1142.18 28.11,1131.85 "/>
    <polygon id="102" class="fil75" points="4885.12,-450.81 4888.5,-440.48 33.75,1149.07 30.37,1138.74 "/>
    <polygon id="103" class="fil76" points="4887.38,-443.92 4890.76,-433.59 36,1155.95 32.62,1145.62 "/>
    <polygon id="104" class="fil77" points="4889.63,-437.04 4893.01,-426.71 38.26,1162.84 34.87,1152.51 "/>
    <polygon id="105" class="fil78" points="4891.88,-430.15 4895.27,-419.82 40.51,1169.72 37.13,1159.4 "/>
    <polygon id="106" class="fil79" points="4894.14,-423.26 4897.52,-412.94 42.77,1176.61 39.38,1166.28 "/>
    <polygon id="107" class="fil80" points="4896.39,-416.38 4899.78,-406.05 45.02,1183.5 41.64,1173.17 "/>
    <polygon id="108" class="fil81" points="4898.65,-409.49 4902.03,-399.16 47.27,1190.38 43.89,1180.05 "/>
    <polygon id="109" class="fil82" points="4900.9,-402.61 4904.28,-392.28 49.53,1197.27 46.15,1186.94 "/>
    <polygon id="110" class="fil83" points="4903.16,-395.72 4906.54,-385.39 51.78,1204.15 48.4,1193.82 "/>
    <polygon id="111" class="fil84" points="4905.41,-388.83 4908.79,-378.51 54.04,1211.04 50.66,1200.71 "/>
    <polygon id="112" class="fil85" points="4907.67,-381.95 4911.05,-371.62 56.29,1217.93 52.91,1207.6 "/>
    <polygon id="113" class="fil86" points="4909.92,-375.06 4913.3,-364.73 58.55,1224.81 55.17,1214.48 "/>
    <polygon id="114" class="fil87" points="4912.18,-368.18 4915.56,-357.85 60.8,1231.7 57.42,1221.37 "/>
    <polygon id="115" class="fil88" points="4914.43,-361.29 4917.81,-350.96 63.06,1238.58 59.67,1228.25 "/>
    <polygon id="116" class="fil89" points="4916.68,-354.41 4920.07,-344.08 65.31,1245.47 61.93,1235.14 "/>
    <polygon id="117" class="fil90" points="4918.94,-347.52 4922.32,-337.19 67.57,1252.36 64.18,1242.03 "/>
    <polygon id="118" class="fil91" points="4921.19,-340.63 4924.58,-330.3 69.82,1259.24 66.44,1248.91 "/>
    <polygon id="119" class="fil92" points="4923.45,-333.75 4926.83,-323.42 72.08,1266.13 68.69,1255.8 "/>
    <polygon id="120" class="fil93" points="4925.7,-326.86 4929.08,-316.53 74.33,1273.01 70.95,1262.68 "/>
    <polygon id="121" class="fil94" points="4927.96,-319.98 4931.34,-309.65 76.58,1279.9 73.2,1269.57 "/>
    <polygon id="122" class="fil95" points="4930.21,-313.09 4933.59,-302.76 78.84,1286.78 75.46,1276.46 "/>
    <polygon id="123" class="fil96" points="4932.47,-306.2 4935.85,-295.88 81.09,1293.67 77.71,1283.34 "/>
    <polygon id="124" class="fil97" points="4934.72,-299.32 4938.1,-288.99 83.35,1300.56 79.97,1290.23 "/>
    <polygon id="125" class="fil98" points="4936.98,-292.43 4940.36,-282.1 85.6,1307.44 82.22,1297.11 "/>
    <polygon id="126" class="fil99" points="4939.23,-285.55 4942.61,-275.22 87.86,1314.33 84.48,1304 "/>
    <polygon id="127" class="fil100" points="4941.49,-278.66 4944.87,-268.33 90.11,1321.21 86.73,1310.89 "/>
    <polygon id="128" class="fil101" points="4943.74,-271.77 4947.12,-261.45 92.37,1328.1 88.98,1317.77 "/>
    <polygon id="129" class="fil102" points="4945.99,-264.89 4949.38,-254.56 94.62,1334.99 91.24,1324.66 "/>
    <polygon id="130" class="fil103" points="4948.25,-258 4951.63,-247.67 96.88,1341.87 93.49,1331.54 "/>
    <polygon id="131" class="fil104" points="4950.5,-251.12 4953.89,-240.79 99.13,1348.76 95.75,1338.43 "/>
    <polygon id="132" class="fil105" points="4952.76,-244.23 4956.14,-233.9 101.38,1355.64 98,1345.31 "/>
    <polygon id="133" class="fil106" points="4955.01,-237.34 4958.39,-227.02 103.64,1362.53 100.26,1352.2 "/>
    <polygon id="134" class="fil107" points="4957.27,-230.46 4960.65,-220.13 105.89,1369.42 102.51,1359.09 "/>
    <polygon id="135" class="fil108" points="4959.52,-223.57 4962.9,-213.24 108.15,1376.3 104.77,1365.97 "/>
    <polygon id="136" class="fil109" points="4961.78,-216.69 4965.16,-206.36 110.4,1383.19 107.02,1372.86 "/>
    <polygon id="137" class="fil110" points="4964.03,-209.8 4967.41,-199.47 112.66,1390.07 109.28,1379.74 "/>
    <polygon id="138" class="fil111" points="4966.29,-202.92 4969.67,-192.59 114.91,1396.96 111.53,1386.63 "/>
    <polygon id="139" class="fil112" points="4968.54,-196.03 4971.92,-185.7 117.17,1403.84 113.79,1393.52 "/>
    <polygon id="140" class="fil113" points="4970.79,-189.14 4974.18,-178.81 119.42,1410.73 116.04,1400.4 "/>
    <polygon id="141" class="fil114" points="4973.05,-182.26 4976.43,-171.93 121.68,1417.62 118.29,1407.29 "/>
    <polygon id="142" class="fil115" points="4975.3,-175.37 4978.69,-165.04 123.93,1424.5 120.55,1414.17 "/>
    <polygon id="143" class="fil116" points="4977.56,-168.49 4980.94,-158.16 126.19,1431.39 122.8,1421.06 "/>
    <polygon id="144" class="fil117" points="4979.81,-161.6 4983.19,-151.27 128.44,1438.27 125.06,1427.95 "/>
    <polygon id="145" class="fil118" points="4982.07,-154.71 4985.45,-144.39 130.69,1445.16 127.31,1434.83 "/>
    <polygon id="146" class="fil119" points="4984.32,-147.83 4987.7,-137.5 132.95,1452.05 129.57,1441.72 "/>
    <polygon id="147" class="fil120" points="4986.58,-140.94 4989.96,-130.61 135.2,1458.93 131.82,1448.6 "/>
    <polygon id="148" class="fil121" points="4988.83,-134.06 4992.21,-123.73 137.46,1465.82 134.08,1455.49 "/>
    <polygon id="149" class="fil122" points="4991.09,-127.17 4994.47,-116.84 139.71,1472.7 136.33,1462.38 "/>
    <polygon id="150" class="fil123" points="4993.34,-120.28 4996.72,-109.96 141.97,1479.59 138.59,1469.26 "/>
    <polygon id="151" class="fil124" points="4995.6,-113.4 4998.98,-103.07 144.22,1486.48 140.84,1476.15 "/>
    <polygon id="152" class="fil125" points="4997.85,-106.51 5001.23,-96.18 146.48,1493.36 143.09,1483.03 "/>
    <polygon id="153" class="fil126" points="5000.1,-99.63 5003.49,-89.3 148.73,1500.25 145.35,1489.92 "/>
    <polygon id="154" class="fil127" points="5002.36,-92.74 5005.74,-82.41 150.99,1507.13 147.6,1496.8 "/>
    <polygon id="155" class="fil128" points="5004.61,-85.86 5008,-75.53 153.24,1514.02 149.86,1503.69 "/>
    <polygon id="156" class="fil129" points="5006.87,-78.97 5010.25,-68.64 155.5,1520.91 152.11,1510.58 "/>
    <polygon id="157" class="fil130" points="5009.12,-72.08 5012.5,-61.75 157.75,1527.79 154.37,1517.46 "/>
    <polygon id="158" class="fil131" points="5011.38,-65.2 5014.76,-54.87 160,1534.68 156.62,1524.35 "/>
    <polygon id="159" class="fil132" points="5013.63,-58.31 5017.01,-47.98 162.26,1541.56 158.88,1531.23 "/>
    <polygon id="160" class="fil133" points="5015.89,-51.43 5019.27,-41.1 164.51,1548.45 161.13,1538.12 "/>
    <polygon id="161" class="fil134" points="5018.14,-44.54 5021.52,-34.21 166.77,1555.33 163.39,1545.01 "/>
    <polygon id="162" class="fil135" points="5020.4,-37.65 5023.78,-27.32 169.02,1562.22 165.64,1551.89 "/>
    <polygon id="163" class="fil136" points="5022.65,-30.77 5026.03,-20.44 171.28,1569.11 167.9,1558.78 "/>
    <polygon id="164" class="fil137" points="5024.9,-23.88 5028.29,-13.55 173.53,1575.99 170.15,1565.66 "/>
    <polygon id="165" class="fil138" points="5027.16,-17 5030.54,-6.67 175.79,1582.88 172.4,1572.55 "/>
    <polygon id="166" class="fil139" points="5029.41,-10.11 5032.8,0.22 178.04,1589.76 174.66,1579.44 "/>
    <polygon id="167" class="fil140" points="5031.67,-3.22 5035.05,7.1 180.3,1596.65 176.91,1586.32 "/>
    <polygon id="168" class="fil141" points="5033.92,3.66 5037.31,13.99 182.55,1603.54 179.17,1593.21 "/>
    <polygon id="169" class="fil142" points="5036.18,10.55 5039.56,20.88 184.8,1610.42 181.42,1600.09 "/>
    <polygon id="170" class="fil143" points="5038.43,17.43 5041.81,27.76 187.06,1617.31 183.68,1606.98 "/>
    <polygon id="171" class="fil144" points="5040.69,24.32 5044.07,34.65 189.31,1624.19 185.93,1613.87 "/>
    <polygon id="172" class="fil145" points="5042.94,31.21 5046.32,41.53 191.57,1631.08 188.19,1620.75 "/>
    <polygon id="173" class="fil146" points="5045.2,38.09 5048.58,48.42 193.82,1637.97 190.44,1627.64 "/>
    <polygon id="174" class="fil147" points="5047.45,44.98 5050.83,55.31 196.08,1644.85 192.7,1634.52 "/>
    <polygon id="175" class="fil148" points="5049.71,51.86 5053.09,62.19 198.33,1651.74 194.95,1641.41 "/>
    <polygon id="176" class="fil149" points="5051.96,58.75 5055.34,69.08 200.59,1658.62 197.2,1648.29 "/>
    <polygon id="177" class="fil150" points="5054.21,65.63 5057.6,75.96 202.84,1665.51 199.46,1655.18 "/>
    <polygon id="178" class="fil151" points="5056.47,72.52 5059.85,82.85 205.1,1672.4 201.71,1662.07 "/>
    <polygon id="179" class="fil152" points="5058.72,79.41 5062.11,89.74 207.35,1679.28 203.97,1668.95 "/>
    <polygon id="180" class="fil153" points="5060.98,86.29 5064.36,96.62 209.61,1686.17 206.22,1675.84 "/>
    <polygon id="181" class="fil154" points="5063.23,93.18 5066.61,103.51 211.86,1693.05 208.48,1682.72 "/>
    <polygon id="182" class="fil155" points="5065.49,100.06 5068.87,110.39 214.11,1699.94 210.73,1689.61 "/>
    <polygon id="183" class="fil156" points="5067.74,106.95 5071.12,117.28 216.37,1706.82 212.99,1696.5 "/>
    <polygon id="184" class="fil157" points="5070,113.84 5073.38,124.17 218.62,1713.71 215.24,1703.38 "/>
    <polygon id="185" class="fil158" points="5072.25,120.72 5075.63,131.05 220.88,1720.6 217.5,1710.27 "/>
    <polygon id="186" class="fil159" points="5074.51,127.61 5077.89,137.94 223.13,1727.48 219.75,1717.15 "/>
    <polygon id="187" class="fil160" points="5076.76,134.49 5080.14,144.82 225.39,1734.37 222.01,1724.04 "/>
    <polygon id="188" class="fil161" points="5079.01,141.38 5082.4,151.71 227.64,1741.25 224.26,1730.93 "/>
    <polygon id="189" class="fil162" points="5081.27,148.27 5084.65,158.59 229.9,1748.14 226.51,1737.81 "/>
    <polygon id="190" class="fil163" points="5083.52,155.15 5086.91,165.48 232.15,1755.03 228.77,1744.7 "/>
    <polygon id="191" class="fil164" points="5085.78,162.04 5089.16,172.37 234.41,1761.91 231.02,1751.58 "/>
    <polygon id="192" class="fil165" points="5088.03,168.92 5091.42,179.25 236.66,1768.8 233.28,1758.47 "/>
    <polygon id="193" class="fil166" points="5090.29,175.81 5093.67,186.14 238.91,1775.68 235.53,1765.36 "/>
    <polygon id="194" class="fil167" points="5092.54,182.7 5095.92,193.02 241.17,1782.57 237.79,1772.24 "/>
    <polygon id="195" class="fil168" points="5094.8,189.58 5098.18,199.91 243.42,1789.46 240.04,1779.13 "/>
    <polygon id="196" class="fil169" points="5097.05,196.47 5100.43,206.8 245.68,1796.34 242.3,1786.01 "/>
    <polygon id="197" class="fil170" points="5099.31,203.35 5102.69,213.68 247.93,1803.23 244.55,1792.9 "/>
    <polygon id="198" class="fil171" points="5101.56,210.24 5104.94,220.57 250.19,1810.11 246.81,1799.78 "/>
    <polygon id="199" class="fil172" points="5103.82,217.12 5107.2,227.45 252.44,1817 249.06,1806.67 "/>
    <polygon id="200" class="fil173" points="5106.07,224.01 5109.45,234.34 254.7,1823.89 251.31,1813.56 "/>
    <polygon id="201" class="fil174" points="5108.32,230.9 5111.71,241.23 256.95,1830.77 253.57,1820.44 "/>
    <polygon id="202" class="fil175" points="5110.58,237.78 5113.96,248.11 259.21,1837.66 255.82,1827.33 "/>
    <polygon id="203" class="fil175" points="5112.83,244.67 5116.22,255 261.46,1844.54 258.08,1834.21 "/>
    <polygon id="204" class="fil176" points="5115.09,251.55 5118.47,261.88 263.71,1851.43 260.33,1841.1 "/>
    <polygon id="205" class="fil177" points="5117.34,258.44 5120.72,268.77 265.97,1858.31 262.59,1847.99 "/>
    <polygon id="206" class="fil178" points="5119.6,265.33 5122.98,275.66 268.22,1865.2 264.84,1854.87 "/>
    <polygon id="207" class="fil179" points="5121.85,272.21 5125.23,282.54 270.48,1872.09 267.1,1861.76 "/>
    <polygon id="208" class="fil180" points="5124.11,279.1 5127.49,289.43 272.73,1878.97 269.35,1868.64 "/>
    <polygon id="209" class="fil181" points="5126.36,285.98 5129.74,296.31 274.99,1885.86 271.61,1875.53 "/>
    <polygon id="210" class="fil181" points="5128.62,292.87 5132,303.2 277.24,1892.74 273.86,1882.42 "/>
    <polygon id="211" class="fil182" points="5130.87,299.76 5134.25,310.08 279.5,1899.63 276.12,1889.3 "/>
    <polygon id="212" class="fil183" points="5133.12,306.64 5136.51,316.97 281.75,1906.52 278.37,1896.19 "/>
    <polygon id="213" class="fil184" points="5135.38,313.53 5138.76,323.86 284.01,1913.4 280.62,1903.07 "/>
    <polygon id="214" class="fil185" points="5137.63,320.41 5141.02,330.74 286.26,1920.29 282.88,1909.96 "/>
    <polygon id="215" class="fil185" points="5139.89,327.3 5143.27,337.63 288.52,1927.17 285.13,1916.84 "/>
    <polygon id="216" class="fil186" points="5142.14,334.19 5145.53,344.51 290.77,1934.06 287.39,1923.73 "/>
    <polygon id="217" class="fil187" points="5144.4,341.07 5147.78,351.4 293.02,1940.95 289.64,1930.62 "/>
    <polygon id="218" class="fil187" points="5146.65,347.96 5150.03,358.29 295.28,1947.83 291.9,1937.5 "/>
    <polygon id="219" class="fil188" points="5148.91,354.84 5152.29,365.17 297.53,1954.72 294.15,1944.39 "/>
    <polygon id="220" class="fil189" points="5151.16,361.73 5154.54,372.06 299.79,1961.6 296.41,1951.27 "/>
    <polygon id="221" class="fil189" points="5153.42,368.61 5156.8,378.94 302.04,1968.49 298.66,1958.16 "/>
    <polygon id="222" class="fil190" points="5155.67,375.5 5159.05,385.83 304.3,1975.38 300.92,1965.05 "/>
    <polygon id="223" class="fil191" points="5157.93,382.39 5161.31,392.72 306.55,1982.26 303.17,1971.93 "/>
    <polygon id="224" class="fil191" points="5160.18,389.27 5163.56,399.6 308.81,1989.15 305.42,1978.82 "/>
    <polygon id="225" class="fil192" points="5162.43,396.16 5165.82,406.49 311.06,1996.03 307.68,1985.7 "/>
    <polygon id="226" class="fil193" points="5164.69,403.04 5168.07,413.37 313.32,2002.92 309.93,1992.59 "/>
    <polygon id="227" class="fil193" points="5166.94,409.93 5170.33,420.26 315.57,2009.8 312.19,1999.48 "/>
    <polygon id="228" class="fil194" points="5169.2,416.82 5172.58,427.14 317.83,2016.69 314.44,2006.36 "/>
    <polygon id="229" class="fil194" points="5171.45,423.7 5174.83,434.03 320.08,2023.58 316.7,2013.25 "/>
    <polygon id="230" class="fil195" points="5173.71,430.59 5177.09,440.92 322.33,2030.46 318.95,2020.13 "/>
    <polygon id="231" class="fil195" points="5175.96,437.47 5179.34,447.8 324.59,2037.35 321.21,2027.02 "/>
    <polygon id="232" class="fil196" points="5178.22,444.36 5181.6,454.69 326.84,2044.23 323.46,2033.91 "/>
    <polygon id="233" class="fil196" points="5180.47,451.25 5183.85,461.57 329.1,2051.12 325.72,2040.79 "/>
    <polygon id="234" class="fil196" points="5182.73,458.13 5186.11,468.46 331.35,2058.01 327.97,2047.68 "/>
    <polygon id="235" class="fil197" points="5184.98,465.02 5188.36,475.35 333.61,2064.89 330.23,2054.56 "/>
    <polygon id="236" class="fil197" points="5187.23,471.9 5190.62,482.23 335.86,2071.78 332.48,2061.45 "/>
    <polygon id="237" class="fil198" points="5189.49,478.79 5192.87,489.12 338.12,2078.66 334.73,2068.33 "/>
    <polygon id="238" class="fil198" points="5191.74,485.68 5195.13,496 340.37,2085.55 336.99,2075.22 "/>
    <polygon id="239" class="fil198" points="5194,492.56 5197.38,502.89 342.63,2092.44 339.24,2082.11 "/>
    <polygon id="240" class="fil199" points="5196.25,499.45 5199.64,509.78 344.88,2099.32 341.5,2088.99 "/>
    <polygon id="241" class="fil199" points="5198.51,506.33 5201.89,516.66 347.13,2106.21 343.75,2095.88 "/>
    <polygon id="242" class="fil199" points="5200.76,513.22 5204.14,523.55 349.39,2113.09 346.01,2102.76 "/>
    <polygon id="243" class="fil199" points="5203.02,520.1 5206.4,530.43 351.64,2119.98 348.26,2109.65 "/>
    <polygon id="244" class="fil200" points="5205.27,526.99 5208.65,537.32 353.9,2126.86 350.52,2116.54 "/>
    <polygon id="245" class="fil200" points="5207.53,533.88 5210.91,544.21 356.15,2133.75 352.77,2123.42 "/>
    <polygon id="246" class="fil200" points="5209.78,540.76 5213.16,551.09 358.41,2140.64 355.03,2130.31 "/>
    <polygon id="247" class="fil200" points="5212.04,547.65 5215.42,557.98 360.66,2147.52 357.28,2137.19 "/>
    <polygon id="248" class="fil200" points="5214.29,554.53 5217.67,564.86 362.92,2154.41 359.53,2144.08 "/>
    <polygon id="249" class="fil201" points="5216.54,561.42 5219.93,571.75 365.17,2161.29 361.79,2150.97 "/>
    <polygon id="250" class="fil201" points="5218.8,568.31 5222.18,578.63 367.43,2168.18 364.04,2157.85 "/>
    <polygon id="251" class="fil201" points="5221.05,575.19 5224.44,585.52 369.68,2175.07 366.3,2164.74 "/>
    <polygon id="252" class="fil201" points="5223.31,582.08 5226.69,592.41 371.94,2181.95 368.55,2171.62 "/>
    <polygon id="253" class="fil201" points="5225.56,588.96 5228.94,599.29 374.19,2188.84 370.81,2178.51 "/>
    <polygon id="254" class="fil201" points="5227.82,595.85 5231.2,606.18 376.44,2195.72 373.06,2185.4 "/>
    <polygon id="255" class="fil201" points="5230.07,602.74 5301.76,821.68 447,2411.23 375.32,2192.28 "/>
   </g>
  </g>
 </g>
</svg>
