<?xml version="1.0" encoding="UTF-8"?>
<!DOCTYPE svg PUBLIC "-//W3C//DTD SVG 1.1//EN" "http://www.w3.org/Graphics/SVG/1.1/DTD/svg11.dtd">
<!-- Creator: CorelDRAW 2020 (64 Bit) -->
<svg xmlns="http://www.w3.org/2000/svg" xml:space="preserve" width="887px" height="878px" version="1.1" style="shape-rendering:geometricPrecision; text-rendering:geometricPrecision; image-rendering:optimizeQuality; fill-rule:evenodd; clip-rule:evenodd"
viewBox="0 0 9.05 8.95"
 xmlns:xlink="http://www.w3.org/1999/xlink"
 xmlns:xodm="http://www.corel.com/coreldraw/odm/2003">
 <defs>
  <style type="text/css">
   <![CDATA[
    .fil201 {fill:#01016A}
    .fil200 {fill:#02016A}
    .fil199 {fill:#03016A}
    .fil198 {fill:#04016A}
    .fil197 {fill:#05016A}
    .fil196 {fill:#06016A}
    .fil195 {fill:#07016A}
    .fil194 {fill:#08016A}
    .fil193 {fill:#09016A}
    .fil192 {fill:#0A016A}
    .fil191 {fill:#0B016A}
    .fil190 {fill:#0C016A}
    .fil189 {fill:#0D016A}
    .fil188 {fill:#0E016A}
    .fil187 {fill:#0F016A}
    .fil186 {fill:#10016A}
    .fil185 {fill:#11016A}
    .fil184 {fill:#12016A}
    .fil183 {fill:#13016A}
    .fil182 {fill:#14016A}
    .fil181 {fill:#15016A}
    .fil180 {fill:#16016A}
    .fil179 {fill:#17016A}
    .fil178 {fill:#18016A}
    .fil177 {fill:#19016A}
    .fil176 {fill:#1A016A}
    .fil175 {fill:#1B016A}
    .fil174 {fill:#1C016A}
    .fil173 {fill:#1D016A}
    .fil172 {fill:#1E016A}
    .fil171 {fill:#1F016A}
    .fil170 {fill:#20016A}
    .fil169 {fill:#21016A}
    .fil168 {fill:#22016A}
    .fil167 {fill:#23016A}
    .fil166 {fill:#24016A}
    .fil165 {fill:#25016A}
    .fil164 {fill:#26016A}
    .fil163 {fill:#27016A}
    .fil162 {fill:#28016A}
    .fil161 {fill:#290269}
    .fil160 {fill:#2B0269}
    .fil159 {fill:#2C0269}
    .fil158 {fill:#2D0269}
    .fil157 {fill:#2E0269}
    .fil156 {fill:#2F0269}
    .fil155 {fill:#300269}
    .fil154 {fill:#310269}
    .fil153 {fill:#320269}
    .fil152 {fill:#340269}
    .fil151 {fill:#350269}
    .fil150 {fill:#360269}
    .fil149 {fill:#370269}
    .fil148 {fill:#380269}
    .fil147 {fill:#3A0269}
    .fil146 {fill:#3B0269}
    .fil145 {fill:#3C0269}
    .fil144 {fill:#3D0269}
    .fil143 {fill:#3E0269}
    .fil142 {fill:#400269}
    .fil141 {fill:#410269}
    .fil140 {fill:#420269}
    .fil139 {fill:#430269}
    .fil138 {fill:#450269}
    .fil137 {fill:#460269}
    .fil136 {fill:#470269}
    .fil135 {fill:#490269}
    .fil134 {fill:#4A0269}
    .fil133 {fill:#4B0269}
    .fil132 {fill:#4C0269}
    .fil131 {fill:#4E0269}
    .fil130 {fill:#4F0269}
    .fil129 {fill:#500269}
    .fil128 {fill:#520269}
    .fil127 {fill:#530269}
    .fil126 {fill:#540269}
    .fil125 {fill:#560269}
    .fil124 {fill:#570269}
    .fil123 {fill:#580269}
    .fil122 {fill:#5A0269}
    .fil121 {fill:#5B0269}
    .fil120 {fill:#5D0269}
    .fil119 {fill:#5E0269}
    .fil118 {fill:#5F0269}
    .fil117 {fill:#610269}
    .fil116 {fill:#620269}
    .fil115 {fill:#630269}
    .fil114 {fill:#650269}
    .fil113 {fill:#660269}
    .fil112 {fill:#680269}
    .fil111 {fill:#690269}
    .fil110 {fill:#6A0269}
    .fil109 {fill:#6C0269}
    .fil108 {fill:#6D0269}
    .fil107 {fill:#6E0269}
    .fil106 {fill:#700269}
    .fil105 {fill:#710269}
    .fil104 {fill:#730269}
    .fil103 {fill:#740269}
    .fil102 {fill:#750269}
    .fil101 {fill:#770269}
    .fil100 {fill:#780368}
    .fil99 {fill:#7A0368}
    .fil98 {fill:#7B0368}
    .fil97 {fill:#7C0368}
    .fil96 {fill:#7E0368}
    .fil95 {fill:#7F0368}
    .fil94 {fill:#810368}
    .fil93 {fill:#820368}
    .fil92 {fill:#830368}
    .fil91 {fill:#850368}
    .fil90 {fill:#860368}
    .fil89 {fill:#870368}
    .fil88 {fill:#890368}
    .fil87 {fill:#8A0368}
    .fil86 {fill:#8C0368}
    .fil85 {fill:#8D0368}
    .fil84 {fill:#8E0368}
    .fil83 {fill:#900368}
    .fil82 {fill:#910368}
    .fil81 {fill:#920368}
    .fil80 {fill:#940368}
    .fil79 {fill:#950368}
    .fil78 {fill:#970368}
    .fil77 {fill:#980368}
    .fil76 {fill:#990368}
    .fil75 {fill:#9B0368}
    .fil74 {fill:#9C0368}
    .fil73 {fill:#9D0368}
    .fil72 {fill:#9F0368}
    .fil71 {fill:#A00368}
    .fil70 {fill:#A10368}
    .fil69 {fill:#A30368}
    .fil68 {fill:#A40368}
    .fil67 {fill:#A50368}
    .fil66 {fill:#A60368}
    .fil65 {fill:#A80368}
    .fil64 {fill:#A90368}
    .fil63 {fill:#AA0368}
    .fil62 {fill:#AC0368}
    .fil61 {fill:#AD0368}
    .fil60 {fill:#AE0368}
    .fil59 {fill:#AF0368}
    .fil58 {fill:#B10368}
    .fil57 {fill:#B20368}
    .fil56 {fill:#B30368}
    .fil55 {fill:#B40368}
    .fil54 {fill:#B50368}
    .fil53 {fill:#B70368}
    .fil52 {fill:#B80368}
    .fil51 {fill:#B90368}
    .fil50 {fill:#BA0368}
    .fil49 {fill:#BB0368}
    .fil48 {fill:#BD0368}
    .fil47 {fill:#BE0368}
    .fil46 {fill:#BF0368}
    .fil45 {fill:#C00368}
    .fil44 {fill:#C10368}
    .fil43 {fill:#C20368}
    .fil42 {fill:#C30368}
    .fil41 {fill:#C40368}
    .fil40 {fill:#C60368}
    .fil39 {fill:#C70467}
    .fil38 {fill:#C80467}
    .fil37 {fill:#C90467}
    .fil36 {fill:#CA0467}
    .fil35 {fill:#CB0467}
    .fil34 {fill:#CC0467}
    .fil33 {fill:#CD0467}
    .fil32 {fill:#CE0467}
    .fil31 {fill:#CF0467}
    .fil30 {fill:#D00467}
    .fil29 {fill:#D10467}
    .fil28 {fill:#D20467}
    .fil27 {fill:#D30467}
    .fil26 {fill:#D40467}
    .fil25 {fill:#D50467}
    .fil24 {fill:#D60467}
    .fil23 {fill:#D70467}
    .fil22 {fill:#D80467}
    .fil21 {fill:#D90467}
    .fil20 {fill:#DA0467}
    .fil19 {fill:#DB0467}
    .fil18 {fill:#DC0467}
    .fil17 {fill:#DD0467}
    .fil16 {fill:#DE0467}
    .fil15 {fill:#DF0467}
    .fil14 {fill:#E00467}
    .fil13 {fill:#E10467}
    .fil12 {fill:#E20467}
    .fil11 {fill:#E30467}
    .fil10 {fill:#E40467}
    .fil9 {fill:#E50467}
    .fil8 {fill:#E60467}
    .fil7 {fill:#E70467}
    .fil6 {fill:#E80467}
    .fil5 {fill:#E90467}
    .fil4 {fill:#EA0467}
    .fil3 {fill:#EB0467}
    .fil2 {fill:#EC0467}
    .fil1 {fill:#ED0467}
    .fil0 {fill:#EE0467}
   ]]>
  </style>
    <clipPath id="id0">
     <path d="M0 4.57l2.28 -4.57 2.28 4.57 -0.72 0 -1.56 -3.15 -1.57 3.15 -0.71 0zm9.05 -4.57l-4.57 2.28 4.57 2.28 0 -0.71 -3.15 -1.57 3.15 -1.56 0 -0.72zm-2.25 8.95l-1.4 -3.6 -1.71 0 0 1.24 1.81 0 0 0.46 -1.81 0 0 1.43 2.27 0 0 0.47 -2.9 0 0 -1.05c-0.06,0.14 -0.14,0.28 -0.24,0.4 -0.18,0.23 -0.41,0.4 -0.68,0.5 -0.27,0.1 -0.63,0.15 -1.08,0.15l-1.06 0 0 -4.07 1.23 0c0.93,0 1.54,0.31 1.83,0.92l0 -0.92 2.16 0 0.6 0 0.06 0 1.3 3.24 1.33 -3.24 0.54 0 -1.62 4.07 -0.63 0zm-6.18 -0.47l0.32 0c0.6,0 1.02,-0.11 1.28,-0.35 0.25,-0.24 0.37,-0.64 0.37,-1.2 0,-0.56 -0.11,-0.97 -0.34,-1.21 -0.23,-0.25 -0.61,-0.37 -1.14,-0.37l-0.49 0 0 3.13z"/>
    </clipPath>
 </defs>
 <g id="Camada_x0020_1">
  <metadata id="CorelCorpID_0Corel-Layer"/>
  <g>
   <g style="clip-path:url(#id0)">
    <polygon class="fil0" points="5.7,-3.38 5.92,-3.16 -3.13,5.78 -3.35,5.56 "/>
    <polygon id="1" class="fil0" points="5.91,-3.17 5.95,-3.13 -3.1,5.81 -3.14,5.77 "/>
    <polygon id="2" class="fil0" points="5.94,-3.15 5.97,-3.11 -3.08,5.83 -3.12,5.8 "/>
    <polygon id="3" class="fil0" points="5.96,-3.12 6,-3.08 -3.05,5.86 -3.09,5.82 "/>
    <polygon id="4" class="fil0" points="5.99,-3.1 6.02,-3.06 -3.03,5.88 -3.07,5.85 "/>
    <polygon id="5" class="fil0" points="6.01,-3.07 6.05,-3.03 -3.01,5.91 -3.04,5.87 "/>
    <polygon id="6" class="fil0" points="6.03,-3.05 6.07,-3.01 -2.98,5.93 -3.02,5.9 "/>
    <polygon id="7" class="fil1" points="6.06,-3.02 6.1,-2.98 -2.96,5.96 -2.99,5.92 "/>
    <polygon id="8" class="fil1" points="6.08,-3 6.12,-2.96 -2.93,5.98 -2.97,5.95 "/>
    <polygon id="9" class="fil1" points="6.11,-2.97 6.15,-2.93 -2.91,6.01 -2.94,5.97 "/>
    <polygon id="10" class="fil1" points="6.13,-2.95 6.17,-2.91 -2.88,6.04 -2.92,6 "/>
    <polygon id="11" class="fil1" points="6.16,-2.92 6.2,-2.88 -2.86,6.06 -2.89,6.02 "/>
    <polygon id="12" class="fil2" points="6.18,-2.9 6.22,-2.86 -2.83,6.09 -2.87,6.05 "/>
    <polygon id="13" class="fil2" points="6.21,-2.87 6.24,-2.83 -2.81,6.11 -2.84,6.07 "/>
    <polygon id="14" class="fil2" points="6.23,-2.85 6.27,-2.81 -2.78,6.14 -2.82,6.1 "/>
    <polygon id="15" class="fil2" points="6.26,-2.82 6.29,-2.78 -2.76,6.16 -2.8,6.12 "/>
    <polygon id="16" class="fil3" points="6.28,-2.79 6.32,-2.76 -2.73,6.19 -2.77,6.15 "/>
    <polygon id="17" class="fil3" points="6.31,-2.77 6.34,-2.73 -2.71,6.21 -2.75,6.17 "/>
    <polygon id="18" class="fil3" points="6.33,-2.74 6.37,-2.71 -2.68,6.24 -2.72,6.2 "/>
    <polygon id="19" class="fil4" points="6.36,-2.72 6.39,-2.68 -2.66,6.26 -2.7,6.22 "/>
    <polygon id="20" class="fil4" points="6.38,-2.69 6.42,-2.66 -2.63,6.29 -2.67,6.25 "/>
    <polygon id="21" class="fil5" points="6.41,-2.67 6.44,-2.63 -2.61,6.31 -2.65,6.27 "/>
    <polygon id="22" class="fil5" points="6.43,-2.64 6.47,-2.61 -2.59,6.34 -2.62,6.3 "/>
    <polygon id="23" class="fil5" points="6.45,-2.62 6.49,-2.58 -2.56,6.36 -2.6,6.32 "/>
    <polygon id="24" class="fil6" points="6.48,-2.59 6.52,-2.56 -2.54,6.39 -2.57,6.35 "/>
    <polygon id="25" class="fil6" points="6.5,-2.57 6.54,-2.53 -2.51,6.41 -2.55,6.37 "/>
    <polygon id="26" class="fil7" points="6.53,-2.54 6.57,-2.51 -2.49,6.44 -2.52,6.4 "/>
    <polygon id="27" class="fil7" points="6.55,-2.52 6.59,-2.48 -2.46,6.46 -2.5,6.42 "/>
    <polygon id="28" class="fil8" points="6.58,-2.49 6.62,-2.46 -2.44,6.49 -2.47,6.45 "/>
    <polygon id="29" class="fil8" points="6.6,-2.47 6.64,-2.43 -2.41,6.51 -2.45,6.47 "/>
    <polygon id="30" class="fil9" points="6.63,-2.44 6.66,-2.41 -2.39,6.54 -2.42,6.5 "/>
    <polygon id="31" class="fil10" points="6.65,-2.42 6.69,-2.38 -2.36,6.56 -2.4,6.52 "/>
    <polygon id="32" class="fil10" points="6.68,-2.39 6.71,-2.36 -2.34,6.59 -2.38,6.55 "/>
    <polygon id="33" class="fil11" points="6.7,-2.37 6.74,-2.33 -2.31,6.61 -2.35,6.57 "/>
    <polygon id="34" class="fil12" points="6.73,-2.34 6.76,-2.31 -2.29,6.64 -2.33,6.6 "/>
    <polygon id="35" class="fil12" points="6.75,-2.32 6.79,-2.28 -2.26,6.66 -2.3,6.62 "/>
    <polygon id="36" class="fil13" points="6.78,-2.29 6.81,-2.26 -2.24,6.69 -2.28,6.65 "/>
    <polygon id="37" class="fil14" points="6.8,-2.27 6.84,-2.23 -2.21,6.71 -2.25,6.67 "/>
    <polygon id="38" class="fil14" points="6.83,-2.24 6.86,-2.21 -2.19,6.74 -2.23,6.7 "/>
    <polygon id="39" class="fil15" points="6.85,-2.22 6.89,-2.18 -2.17,6.76 -2.2,6.72 "/>
    <polygon id="40" class="fil16" points="6.87,-2.19 6.91,-2.16 -2.14,6.79 -2.18,6.75 "/>
    <polygon id="41" class="fil16" points="6.9,-2.17 6.94,-2.13 -2.12,6.81 -2.15,6.77 "/>
    <polygon id="42" class="fil17" points="6.92,-2.14 6.96,-2.11 -2.09,6.84 -2.13,6.8 "/>
    <polygon id="43" class="fil18" points="6.95,-2.12 6.99,-2.08 -2.07,6.86 -2.1,6.82 "/>
    <polygon id="44" class="fil19" points="6.97,-2.09 7.01,-2.06 -2.04,6.89 -2.08,6.85 "/>
    <polygon id="45" class="fil20" points="7,-2.07 7.04,-2.03 -2.02,6.91 -2.05,6.87 "/>
    <polygon id="46" class="fil20" points="7.02,-2.04 7.06,-2.01 -1.99,6.94 -2.03,6.9 "/>
    <polygon id="47" class="fil21" points="7.05,-2.02 7.08,-1.98 -1.97,6.96 -2,6.92 "/>
    <polygon id="48" class="fil22" points="7.07,-1.99 7.11,-1.96 -1.94,6.99 -1.98,6.95 "/>
    <polygon id="49" class="fil23" points="7.1,-1.97 7.13,-1.93 -1.92,7.01 -1.96,6.97 "/>
    <polygon id="50" class="fil24" points="7.12,-1.94 7.16,-1.91 -1.89,7.04 -1.93,7 "/>
    <polygon id="51" class="fil25" points="7.15,-1.92 7.18,-1.88 -1.87,7.06 -1.91,7.02 "/>
    <polygon id="52" class="fil26" points="7.17,-1.89 7.21,-1.86 -1.84,7.09 -1.88,7.05 "/>
    <polygon id="53" class="fil26" points="7.2,-1.87 7.23,-1.83 -1.82,7.11 -1.86,7.07 "/>
    <polygon id="54" class="fil27" points="7.22,-1.84 7.26,-1.81 -1.79,7.14 -1.83,7.1 "/>
    <polygon id="55" class="fil28" points="7.25,-1.82 7.28,-1.78 -1.77,7.16 -1.81,7.12 "/>
    <polygon id="56" class="fil29" points="7.27,-1.79 7.31,-1.76 -1.75,7.19 -1.78,7.15 "/>
    <polygon id="57" class="fil30" points="7.29,-1.77 7.33,-1.73 -1.72,7.21 -1.76,7.17 "/>
    <polygon id="58" class="fil31" points="7.32,-1.74 7.36,-1.71 -1.7,7.24 -1.73,7.2 "/>
    <polygon id="59" class="fil32" points="7.34,-1.72 7.38,-1.68 -1.67,7.26 -1.71,7.22 "/>
    <polygon id="60" class="fil33" points="7.37,-1.69 7.41,-1.66 -1.65,7.29 -1.68,7.25 "/>
    <polygon id="61" class="fil34" points="7.39,-1.67 7.43,-1.63 -1.62,7.31 -1.66,7.27 "/>
    <polygon id="62" class="fil35" points="7.42,-1.64 7.46,-1.61 -1.6,7.34 -1.63,7.3 "/>
    <polygon id="63" class="fil36" points="7.44,-1.62 7.48,-1.58 -1.57,7.36 -1.61,7.32 "/>
    <polygon id="64" class="fil37" points="7.47,-1.59 7.5,-1.56 -1.55,7.39 -1.58,7.35 "/>
    <polygon id="65" class="fil38" points="7.49,-1.57 7.53,-1.53 -1.52,7.41 -1.56,7.37 "/>
    <polygon id="66" class="fil39" points="7.52,-1.54 7.55,-1.51 -1.5,7.44 -1.54,7.4 "/>
    <polygon id="67" class="fil40" points="7.54,-1.52 7.58,-1.48 -1.47,7.46 -1.51,7.42 "/>
    <polygon id="68" class="fil41" points="7.57,-1.49 7.6,-1.46 -1.45,7.49 -1.49,7.45 "/>
    <polygon id="69" class="fil42" points="7.59,-1.47 7.63,-1.43 -1.42,7.51 -1.46,7.47 "/>
    <polygon id="70" class="fil43" points="7.62,-1.44 7.65,-1.41 -1.4,7.54 -1.44,7.5 "/>
    <polygon id="71" class="fil44" points="7.64,-1.42 7.68,-1.38 -1.37,7.56 -1.41,7.52 "/>
    <polygon id="72" class="fil45" points="7.67,-1.39 7.7,-1.36 -1.35,7.59 -1.39,7.55 "/>
    <polygon id="73" class="fil46" points="7.69,-1.37 7.73,-1.33 -1.33,7.61 -1.36,7.57 "/>
    <polygon id="74" class="fil47" points="7.71,-1.34 7.75,-1.31 -1.3,7.64 -1.34,7.6 "/>
    <polygon id="75" class="fil48" points="7.74,-1.32 7.78,-1.28 -1.28,7.66 -1.31,7.62 "/>
    <polygon id="76" class="fil49" points="7.76,-1.29 7.8,-1.26 -1.25,7.69 -1.29,7.65 "/>
    <polygon id="77" class="fil50" points="7.79,-1.27 7.83,-1.23 -1.23,7.71 -1.26,7.67 "/>
    <polygon id="78" class="fil51" points="7.81,-1.24 7.85,-1.21 -1.2,7.74 -1.24,7.7 "/>
    <polygon id="79" class="fil52" points="7.84,-1.22 7.88,-1.18 -1.18,7.76 -1.21,7.72 "/>
    <polygon id="80" class="fil53" points="7.86,-1.19 7.9,-1.16 -1.15,7.79 -1.19,7.75 "/>
    <polygon id="81" class="fil54" points="7.89,-1.17 7.92,-1.13 -1.13,7.81 -1.16,7.77 "/>
    <polygon id="82" class="fil55" points="7.91,-1.14 7.95,-1.11 -1.1,7.84 -1.14,7.8 "/>
    <polygon id="83" class="fil56" points="7.94,-1.12 7.97,-1.08 -1.08,7.86 -1.12,7.82 "/>
    <polygon id="84" class="fil57" points="7.96,-1.09 8,-1.06 -1.05,7.89 -1.09,7.85 "/>
    <polygon id="85" class="fil58" points="7.99,-1.07 8.02,-1.03 -1.03,7.91 -1.07,7.87 "/>
    <polygon id="86" class="fil59" points="8.01,-1.04 8.05,-1.01 -1,7.94 -1.04,7.9 "/>
    <polygon id="87" class="fil60" points="8.04,-1.02 8.07,-0.98 -0.98,7.96 -1.02,7.92 "/>
    <polygon id="88" class="fil61" points="8.06,-0.99 8.1,-0.96 -0.96,7.99 -0.99,7.95 "/>
    <polygon id="89" class="fil62" points="8.09,-0.97 8.12,-0.93 -0.93,8.01 -0.97,7.97 "/>
    <polygon id="90" class="fil63" points="8.11,-0.94 8.15,-0.91 -0.91,8.04 -0.94,8 "/>
    <polygon id="91" class="fil64" points="8.13,-0.92 8.17,-0.88 -0.88,8.06 -0.92,8.02 "/>
    <polygon id="92" class="fil65" points="8.16,-0.89 8.2,-0.86 -0.86,8.09 -0.89,8.05 "/>
    <polygon id="93" class="fil66" points="8.18,-0.87 8.22,-0.83 -0.83,8.11 -0.87,8.07 "/>
    <polygon id="94" class="fil67" points="8.21,-0.84 8.25,-0.81 -0.81,8.14 -0.84,8.1 "/>
    <polygon id="95" class="fil68" points="8.23,-0.82 8.27,-0.78 -0.78,8.16 -0.82,8.12 "/>
    <polygon id="96" class="fil69" points="8.26,-0.79 8.3,-0.76 -0.76,8.19 -0.79,8.15 "/>
    <polygon id="97" class="fil70" points="8.28,-0.77 8.32,-0.73 -0.73,8.21 -0.77,8.17 "/>
    <polygon id="98" class="fil71" points="8.31,-0.74 8.34,-0.71 -0.71,8.24 -0.75,8.2 "/>
    <polygon id="99" class="fil72" points="8.33,-0.72 8.37,-0.68 -0.68,8.26 -0.72,8.22 "/>
    <polygon id="100" class="fil73" points="8.36,-0.69 8.39,-0.66 -0.66,8.29 -0.7,8.25 "/>
    <polygon id="101" class="fil74" points="8.38,-0.67 8.42,-0.63 -0.63,8.31 -0.67,8.27 "/>
    <polygon id="102" class="fil75" points="8.41,-0.64 8.44,-0.61 -0.61,8.34 -0.65,8.3 "/>
    <polygon id="103" class="fil76" points="8.43,-0.62 8.47,-0.58 -0.58,8.36 -0.62,8.32 "/>
    <polygon id="104" class="fil77" points="8.46,-0.59 8.49,-0.56 -0.56,8.39 -0.6,8.35 "/>
    <polygon id="105" class="fil78" points="8.48,-0.57 8.52,-0.53 -0.54,8.41 -0.57,8.37 "/>
    <polygon id="106" class="fil79" points="8.51,-0.54 8.54,-0.51 -0.51,8.44 -0.55,8.4 "/>
    <polygon id="107" class="fil80" points="8.53,-0.52 8.57,-0.48 -0.49,8.46 -0.52,8.42 "/>
    <polygon id="108" class="fil81" points="8.55,-0.49 8.59,-0.46 -0.46,8.49 -0.5,8.45 "/>
    <polygon id="109" class="fil82" points="8.58,-0.47 8.62,-0.43 -0.44,8.51 -0.47,8.47 "/>
    <polygon id="110" class="fil83" points="8.6,-0.44 8.64,-0.41 -0.41,8.54 -0.45,8.5 "/>
    <polygon id="111" class="fil84" points="8.63,-0.42 8.67,-0.38 -0.39,8.56 -0.42,8.52 "/>
    <polygon id="112" class="fil85" points="8.65,-0.39 8.69,-0.36 -0.36,8.59 -0.4,8.55 "/>
    <polygon id="113" class="fil86" points="8.68,-0.37 8.72,-0.33 -0.34,8.61 -0.37,8.57 "/>
    <polygon id="114" class="fil87" points="8.7,-0.34 8.74,-0.31 -0.31,8.64 -0.35,8.6 "/>
    <polygon id="115" class="fil88" points="8.73,-0.32 8.76,-0.28 -0.29,8.66 -0.33,8.62 "/>
    <polygon id="116" class="fil89" points="8.75,-0.29 8.79,-0.26 -0.26,8.69 -0.3,8.65 "/>
    <polygon id="117" class="fil90" points="8.78,-0.27 8.81,-0.23 -0.24,8.71 -0.28,8.67 "/>
    <polygon id="118" class="fil91" points="8.8,-0.24 8.84,-0.21 -0.21,8.74 -0.25,8.7 "/>
    <polygon id="119" class="fil92" points="8.83,-0.22 8.86,-0.18 -0.19,8.76 -0.23,8.72 "/>
    <polygon id="120" class="fil93" points="8.85,-0.19 8.89,-0.16 -0.16,8.79 -0.2,8.75 "/>
    <polygon id="121" class="fil94" points="8.88,-0.17 8.91,-0.13 -0.14,8.81 -0.18,8.77 "/>
    <polygon id="122" class="fil95" points="8.9,-0.14 8.94,-0.11 -0.12,8.84 -0.15,8.8 "/>
    <polygon id="123" class="fil96" points="8.93,-0.12 8.96,-0.08 -0.09,8.86 -0.13,8.82 "/>
    <polygon id="124" class="fil97" points="8.95,-0.09 8.99,-0.06 -0.07,8.89 -0.1,8.85 "/>
    <polygon id="125" class="fil98" points="8.97,-0.07 9.01,-0.03 -0.04,8.91 -0.08,8.87 "/>
    <polygon id="126" class="fil99" points="9,-0.04 9.04,-0.01 -0.02,8.94 -0.05,8.9 "/>
    <polygon id="127" class="fil100" points="9.02,-0.02 9.06,0.02 0.01,8.96 -0.03,8.92 "/>
    <polygon id="128" class="fil101" points="9.05,0.01 9.09,0.04 0.03,8.99 0,8.95 "/>
    <polygon id="129" class="fil102" points="9.07,0.03 9.11,0.07 0.06,9.01 0.02,8.97 "/>
    <polygon id="130" class="fil103" points="9.1,0.06 9.14,0.09 0.08,9.04 0.05,9 "/>
    <polygon id="131" class="fil104" points="9.12,0.08 9.16,0.12 0.11,9.06 0.07,9.02 "/>
    <polygon id="132" class="fil105" points="9.15,0.11 9.18,0.14 0.13,9.09 0.09,9.05 "/>
    <polygon id="133" class="fil106" points="9.17,0.13 9.21,0.17 0.16,9.11 0.12,9.07 "/>
    <polygon id="134" class="fil107" points="9.2,0.16 9.23,0.19 0.18,9.14 0.14,9.1 "/>
    <polygon id="135" class="fil108" points="9.22,0.18 9.26,0.22 0.21,9.16 0.17,9.12 "/>
    <polygon id="136" class="fil109" points="9.25,0.21 9.28,0.24 0.23,9.19 0.19,9.15 "/>
    <polygon id="137" class="fil110" points="9.27,0.23 9.31,0.27 0.26,9.21 0.22,9.17 "/>
    <polygon id="138" class="fil111" points="9.3,0.26 9.33,0.29 0.28,9.24 0.24,9.2 "/>
    <polygon id="139" class="fil112" points="9.32,0.28 9.36,0.32 0.3,9.26 0.27,9.22 "/>
    <polygon id="140" class="fil113" points="9.35,0.31 9.38,0.34 0.33,9.29 0.29,9.25 "/>
    <polygon id="141" class="fil114" points="9.37,0.33 9.41,0.37 0.35,9.31 0.32,9.27 "/>
    <polygon id="142" class="fil115" points="9.39,0.36 9.43,0.39 0.38,9.34 0.34,9.3 "/>
    <polygon id="143" class="fil116" points="9.42,0.38 9.46,0.42 0.4,9.36 0.37,9.32 "/>
    <polygon id="144" class="fil117" points="9.44,0.41 9.48,0.44 0.43,9.39 0.39,9.35 "/>
    <polygon id="145" class="fil118" points="9.47,0.43 9.51,0.47 0.45,9.41 0.42,9.37 "/>
    <polygon id="146" class="fil119" points="9.49,0.46 9.53,0.49 0.48,9.44 0.44,9.4 "/>
    <polygon id="147" class="fil120" points="9.52,0.48 9.56,0.52 0.5,9.46 0.47,9.42 "/>
    <polygon id="148" class="fil121" points="9.54,0.51 9.58,0.54 0.53,9.49 0.49,9.45 "/>
    <polygon id="149" class="fil122" points="9.57,0.53 9.6,0.57 0.55,9.51 0.51,9.47 "/>
    <polygon id="150" class="fil123" points="9.59,0.56 9.63,0.59 0.58,9.54 0.54,9.5 "/>
    <polygon id="151" class="fil124" points="9.62,0.58 9.65,0.62 0.6,9.56 0.56,9.52 "/>
    <polygon id="152" class="fil125" points="9.64,0.61 9.68,0.64 0.63,9.59 0.59,9.55 "/>
    <polygon id="153" class="fil126" points="9.67,0.63 9.7,0.67 0.65,9.61 0.61,9.57 "/>
    <polygon id="154" class="fil127" points="9.69,0.66 9.73,0.69 0.68,9.64 0.64,9.6 "/>
    <polygon id="155" class="fil128" points="9.72,0.68 9.75,0.72 0.7,9.66 0.66,9.62 "/>
    <polygon id="156" class="fil129" points="9.74,0.71 9.78,0.74 0.72,9.69 0.69,9.65 "/>
    <polygon id="157" class="fil130" points="9.77,0.73 9.8,0.77 0.75,9.71 0.71,9.67 "/>
    <polygon id="158" class="fil131" points="9.79,0.76 9.83,0.79 0.77,9.74 0.74,9.7 "/>
    <polygon id="159" class="fil132" points="9.81,0.78 9.85,0.82 0.8,9.76 0.76,9.72 "/>
    <polygon id="160" class="fil133" points="9.84,0.81 9.88,0.84 0.82,9.79 0.79,9.75 "/>
    <polygon id="161" class="fil134" points="9.86,0.83 9.9,0.87 0.85,9.81 0.81,9.77 "/>
    <polygon id="162" class="fil135" points="9.89,0.86 9.93,0.89 0.87,9.84 0.84,9.8 "/>
    <polygon id="163" class="fil136" points="9.91,0.88 9.95,0.92 0.9,9.86 0.86,9.82 "/>
    <polygon id="164" class="fil137" points="9.94,0.91 9.98,0.94 0.92,9.89 0.89,9.85 "/>
    <polygon id="165" class="fil138" points="9.96,0.93 10,0.97 0.95,9.91 0.91,9.87 "/>
    <polygon id="166" class="fil139" points="9.99,0.96 10.02,0.99 0.97,9.94 0.93,9.9 "/>
    <polygon id="167" class="fil140" points="10.01,0.98 10.05,1.02 1,9.96 0.96,9.92 "/>
    <polygon id="168" class="fil141" points="10.04,1.01 10.07,1.04 1.02,9.99 0.98,9.95 "/>
    <polygon id="169" class="fil142" points="10.06,1.03 10.1,1.07 1.05,10.01 1.01,9.97 "/>
    <polygon id="170" class="fil143" points="10.09,1.06 10.12,1.09 1.07,10.04 1.03,10 "/>
    <polygon id="171" class="fil144" points="10.11,1.08 10.15,1.12 1.1,10.06 1.06,10.02 "/>
    <polygon id="172" class="fil145" points="10.14,1.11 10.17,1.14 1.12,10.09 1.08,10.05 "/>
    <polygon id="173" class="fil146" points="10.16,1.13 10.2,1.17 1.14,10.11 1.11,10.07 "/>
    <polygon id="174" class="fil147" points="10.19,1.16 10.22,1.19 1.17,10.14 1.13,10.1 "/>
    <polygon id="175" class="fil148" points="10.21,1.18 10.25,1.22 1.19,10.16 1.16,10.12 "/>
    <polygon id="176" class="fil149" points="10.23,1.21 10.27,1.24 1.22,10.19 1.18,10.15 "/>
    <polygon id="177" class="fil150" points="10.26,1.23 10.3,1.27 1.24,10.21 1.21,10.17 "/>
    <polygon id="178" class="fil151" points="10.28,1.26 10.32,1.29 1.27,10.24 1.23,10.2 "/>
    <polygon id="179" class="fil152" points="10.31,1.28 10.35,1.32 1.29,10.26 1.26,10.22 "/>
    <polygon id="180" class="fil153" points="10.33,1.31 10.37,1.34 1.32,10.29 1.28,10.25 "/>
    <polygon id="181" class="fil154" points="10.36,1.33 10.4,1.37 1.34,10.31 1.31,10.27 "/>
    <polygon id="182" class="fil155" points="10.38,1.36 10.42,1.39 1.37,10.34 1.33,10.3 "/>
    <polygon id="183" class="fil156" points="10.41,1.38 10.44,1.42 1.39,10.36 1.35,10.32 "/>
    <polygon id="184" class="fil157" points="10.43,1.41 10.47,1.44 1.42,10.39 1.38,10.35 "/>
    <polygon id="185" class="fil158" points="10.46,1.43 10.49,1.47 1.44,10.41 1.4,10.37 "/>
    <polygon id="186" class="fil159" points="10.48,1.46 10.52,1.49 1.47,10.44 1.43,10.4 "/>
    <polygon id="187" class="fil160" points="10.51,1.48 10.54,1.52 1.49,10.46 1.45,10.42 "/>
    <polygon id="188" class="fil161" points="10.53,1.51 10.57,1.54 1.52,10.49 1.48,10.45 "/>
    <polygon id="189" class="fil162" points="10.56,1.53 10.59,1.57 1.54,10.51 1.5,10.47 "/>
    <polygon id="190" class="fil163" points="10.58,1.56 10.62,1.59 1.56,10.54 1.53,10.5 "/>
    <polygon id="191" class="fil164" points="10.61,1.58 10.64,1.62 1.59,10.56 1.55,10.52 "/>
    <polygon id="192" class="fil165" points="10.63,1.61 10.67,1.64 1.61,10.59 1.58,10.55 "/>
    <polygon id="193" class="fil166" points="10.65,1.63 10.69,1.67 1.64,10.61 1.6,10.57 "/>
    <polygon id="194" class="fil167" points="10.68,1.66 10.72,1.69 1.66,10.64 1.63,10.6 "/>
    <polygon id="195" class="fil168" points="10.7,1.68 10.74,1.72 1.69,10.66 1.65,10.62 "/>
    <polygon id="196" class="fil169" points="10.73,1.71 10.77,1.74 1.71,10.69 1.68,10.65 "/>
    <polygon id="197" class="fil170" points="10.75,1.73 10.79,1.77 1.74,10.71 1.7,10.67 "/>
    <polygon id="198" class="fil171" points="10.78,1.76 10.82,1.79 1.76,10.74 1.73,10.7 "/>
    <polygon id="199" class="fil172" points="10.8,1.78 10.84,1.82 1.79,10.76 1.75,10.72 "/>
    <polygon id="200" class="fil173" points="10.83,1.81 10.86,1.84 1.81,10.79 1.77,10.75 "/>
    <polygon id="201" class="fil174" points="10.85,1.83 10.89,1.87 1.84,10.81 1.8,10.77 "/>
    <polygon id="202" class="fil175" points="10.88,1.86 10.91,1.89 1.86,10.84 1.82,10.8 "/>
    <polygon id="203" class="fil175" points="10.9,1.88 10.94,1.92 1.89,10.86 1.85,10.82 "/>
    <polygon id="204" class="fil176" points="10.93,1.91 10.96,1.94 1.91,10.89 1.87,10.85 "/>
    <polygon id="205" class="fil177" points="10.95,1.93 10.99,1.97 1.94,10.91 1.9,10.87 "/>
    <polygon id="206" class="fil178" points="10.98,1.96 11.01,1.99 1.96,10.94 1.92,10.9 "/>
    <polygon id="207" class="fil179" points="11,1.98 11.04,2.02 1.98,10.96 1.95,10.92 "/>
    <polygon id="208" class="fil180" points="11.03,2.01 11.06,2.04 2.01,10.99 1.97,10.95 "/>
    <polygon id="209" class="fil181" points="11.05,2.03 11.09,2.07 2.03,11.01 2,10.97 "/>
    <polygon id="210" class="fil181" points="11.07,2.06 11.11,2.09 2.06,11.04 2.02,11 "/>
    <polygon id="211" class="fil182" points="11.1,2.08 11.14,2.12 2.08,11.06 2.05,11.02 "/>
    <polygon id="212" class="fil183" points="11.12,2.11 11.16,2.14 2.11,11.09 2.07,11.05 "/>
    <polygon id="213" class="fil184" points="11.15,2.13 11.19,2.17 2.13,11.11 2.1,11.07 "/>
    <polygon id="214" class="fil185" points="11.17,2.16 11.21,2.19 2.16,11.14 2.12,11.1 "/>
    <polygon id="215" class="fil185" points="11.2,2.18 11.24,2.22 2.18,11.16 2.15,11.12 "/>
    <polygon id="216" class="fil186" points="11.22,2.21 11.26,2.24 2.21,11.19 2.17,11.15 "/>
    <polygon id="217" class="fil187" points="11.25,2.23 11.28,2.27 2.23,11.21 2.19,11.17 "/>
    <polygon id="218" class="fil187" points="11.27,2.26 11.31,2.29 2.26,11.24 2.22,11.2 "/>
    <polygon id="219" class="fil188" points="11.3,2.28 11.33,2.32 2.28,11.26 2.24,11.22 "/>
    <polygon id="220" class="fil189" points="11.32,2.31 11.36,2.34 2.31,11.29 2.27,11.25 "/>
    <polygon id="221" class="fil189" points="11.35,2.33 11.38,2.37 2.33,11.31 2.29,11.27 "/>
    <polygon id="222" class="fil190" points="11.37,2.36 11.41,2.39 2.36,11.34 2.32,11.3 "/>
    <polygon id="223" class="fil191" points="11.4,2.38 11.43,2.42 2.38,11.36 2.34,11.32 "/>
    <polygon id="224" class="fil191" points="11.42,2.41 11.46,2.44 2.4,11.39 2.37,11.35 "/>
    <polygon id="225" class="fil192" points="11.45,2.43 11.48,2.47 2.43,11.41 2.39,11.37 "/>
    <polygon id="226" class="fil193" points="11.47,2.46 11.51,2.49 2.45,11.44 2.42,11.4 "/>
    <polygon id="227" class="fil193" points="11.49,2.48 11.53,2.52 2.48,11.46 2.44,11.42 "/>
    <polygon id="228" class="fil194" points="11.52,2.51 11.56,2.54 2.5,11.49 2.47,11.45 "/>
    <polygon id="229" class="fil194" points="11.54,2.53 11.58,2.57 2.53,11.51 2.49,11.47 "/>
    <polygon id="230" class="fil195" points="11.57,2.56 11.61,2.59 2.55,11.54 2.52,11.5 "/>
    <polygon id="231" class="fil195" points="11.59,2.58 11.63,2.62 2.58,11.56 2.54,11.52 "/>
    <polygon id="232" class="fil196" points="11.62,2.61 11.66,2.64 2.6,11.59 2.57,11.55 "/>
    <polygon id="233" class="fil196" points="11.64,2.63 11.68,2.67 2.63,11.61 2.59,11.57 "/>
    <polygon id="234" class="fil196" points="11.67,2.66 11.7,2.69 2.65,11.64 2.61,11.6 "/>
    <polygon id="235" class="fil197" points="11.69,2.68 11.73,2.72 2.68,11.66 2.64,11.62 "/>
    <polygon id="236" class="fil197" points="11.72,2.71 11.75,2.74 2.7,11.69 2.66,11.65 "/>
    <polygon id="237" class="fil198" points="11.74,2.73 11.78,2.77 2.73,11.71 2.69,11.67 "/>
    <polygon id="238" class="fil198" points="11.77,2.76 11.8,2.79 2.75,11.74 2.71,11.7 "/>
    <polygon id="239" class="fil198" points="11.79,2.78 11.83,2.82 2.78,11.76 2.74,11.72 "/>
    <polygon id="240" class="fil199" points="11.82,2.81 11.85,2.84 2.8,11.79 2.76,11.75 "/>
    <polygon id="241" class="fil199" points="11.84,2.83 11.88,2.87 2.82,11.81 2.79,11.77 "/>
    <polygon id="242" class="fil199" points="11.87,2.86 11.9,2.89 2.85,11.84 2.81,11.8 "/>
    <polygon id="243" class="fil199" points="11.89,2.88 11.93,2.92 2.87,11.86 2.84,11.82 "/>
    <polygon id="244" class="fil200" points="11.91,2.91 11.95,2.94 2.9,11.89 2.86,11.85 "/>
    <polygon id="245" class="fil200" points="11.94,2.93 11.98,2.97 2.92,11.91 2.89,11.87 "/>
    <polygon id="246" class="fil200" points="11.96,2.96 12,2.99 2.95,11.94 2.91,11.9 "/>
    <polygon id="247" class="fil200" points="11.99,2.98 12.03,3.02 2.97,11.96 2.94,11.92 "/>
    <polygon id="248" class="fil200" points="12.01,3.01 12.05,3.04 3,11.99 2.96,11.95 "/>
    <polygon id="249" class="fil201" points="12.04,3.03 12.08,3.07 3.02,12.01 2.99,11.97 "/>
    <polygon id="250" class="fil201" points="12.06,3.06 12.1,3.09 3.05,12.04 3.01,12 "/>
    <polygon id="251" class="fil201" points="12.09,3.08 12.12,3.12 3.07,12.06 3.03,12.02 "/>
    <polygon id="252" class="fil201" points="12.11,3.11 12.15,3.14 3.1,12.09 3.06,12.05 "/>
    <polygon id="253" class="fil201" points="12.14,3.13 12.17,3.17 3.12,12.11 3.08,12.07 "/>
    <polygon id="254" class="fil201" points="12.16,3.16 12.2,3.19 3.15,12.14 3.11,12.1 "/>
    <polygon id="255" class="fil201" points="12.19,3.18 12.72,3.72 3.67,12.67 3.13,12.12 "/>
   </g>
  </g>
 </g>
</svg>
